<svg width="21" height="19" viewBox="0 0 21 19" fill="none" xmlns="http://www.w3.org/2000/svg">
<path d="M7.43088 18H12.9431C17.5365 18 19.3739 16.3 19.3739 12.05V6.95C19.3739 2.7 17.5365 1 12.9431 1H7.43088C2.83739 1 1 2.7 1 6.95V12.05C1 16.3 2.83739 18 7.43088 18Z" stroke="white" stroke-width="2" stroke-linecap="round" stroke-linejoin="round"/>
<path d="M7.43114 7.80002C8.44594 7.80002 9.26854 7.03891 9.26854 6.10002C9.26854 5.16114 8.44594 4.40002 7.43114 4.40002C6.41638 4.40002 5.59375 5.16114 5.59375 6.10002C5.59375 7.03891 6.41638 7.80002 7.43114 7.80002Z" stroke="white" stroke-width="2" stroke-linecap="round" stroke-linejoin="round"/>
<path d="M1.61523 15.4075L6.14441 12.594C6.87018 12.1435 7.9175 12.1945 8.56973 12.713L8.8729 12.9596C9.58949 13.5291 10.747 13.5291 11.4636 12.9596L15.2854 9.92505C16.002 9.35555 17.1596 9.35555 17.8761 9.92505L19.3736 11.115" stroke="white" stroke-width="2" stroke-linecap="round" stroke-linejoin="round"/>
</svg>
