<svg width="46" height="46" viewBox="0 0 46 46" fill="none" xmlns="http://www.w3.org/2000/svg">
<path d="M34.5932 45C33.5082 45 32.1162 44.6496 30.3762 43.6192L24.2553 39.9714C23.6207 39.6005 22.3924 39.6005 21.7783 39.9714L15.637 43.6192C12.0137 45.7831 9.88468 44.9176 8.92254 44.2169C7.98087 43.5162 6.50695 41.7232 7.46909 37.6014L8.92254 31.2745C9.08631 30.615 8.75877 29.4815 8.26746 28.9869L3.19064 23.8759C0.652234 21.3204 0.856944 19.1359 1.20495 18.0641C1.55296 16.9925 2.6584 15.0965 6.17942 14.4988L12.7097 13.4065C13.3238 13.3035 14.2041 12.644 14.4702 12.0876L18.0936 4.81264C19.7312 1.49461 21.8807 1 23.0066 1C24.1325 1 26.2819 1.49461 27.9196 4.81264L31.5225 12.067C31.8091 12.6234 32.6894 13.2829 33.3035 13.3859L39.8338 14.4782C43.3753 15.0759 44.4807 16.9719 44.8083 18.0435C45.1358 19.1153 45.3405 21.2998 42.8226 23.8553L37.7457 28.9869C37.2544 29.4815 36.9474 30.5944 37.0907 31.2745L38.5441 37.6014C39.4858 41.7232 38.0323 43.5162 37.0907 44.2169C36.5789 44.5878 35.76 45 34.5932 45ZM23.0066 36.5916C24.0097 36.5916 25.0127 36.8389 25.8111 37.3129L31.932 40.9607C33.7129 42.0323 34.8388 42.0323 35.2687 41.7232C35.6986 41.4141 36.0057 40.3218 35.5553 38.3021L34.1019 31.9752C33.7129 30.2647 34.3475 28.0595 35.5758 26.8024L40.6526 21.6914C41.6557 20.6815 42.1061 19.6923 41.9014 19.0122C41.6762 18.3321 40.7345 17.7756 39.3425 17.5489L32.8122 16.4567C31.2359 16.1887 29.5164 14.911 28.7999 13.4684L25.197 6.21404C24.5419 4.89508 23.7231 4.11194 23.0066 4.11194C22.2901 4.11194 21.4713 4.89508 20.8366 6.21404L17.2133 13.4684C16.4968 14.911 14.7773 16.1887 13.201 16.4567L6.69119 17.5489C5.29916 17.7756 4.35749 18.3321 4.13231 19.0122C3.90713 19.6923 4.37796 20.7021 5.38105 21.6914L10.4579 26.8024C11.6861 28.0389 12.3207 30.2647 11.9318 31.9752L10.4783 38.3021C10.0075 40.3424 10.335 41.4141 10.7649 41.7232C11.1948 42.0323 12.3003 42.0117 14.1017 40.9607L20.2225 37.3129C21.0004 36.8389 22.0035 36.5916 23.0066 36.5916Z" fill="#B4B4B4" stroke="#B4B4B4"/>
</svg>
