<svg width="47" height="46" viewBox="0 0 47 46" fill="none" xmlns="http://www.w3.org/2000/svg">
<path d="M35.3567 45C34.2471 45 32.8234 44.6496 31.0438 43.6192L24.7838 39.9714C24.1348 39.6005 22.8786 39.6005 22.2506 39.9714L15.9697 43.6192C12.264 45.7831 10.0866 44.9176 9.1026 44.2169C8.13953 43.5162 6.63211 41.7232 7.61612 37.6014L9.1026 31.2745C9.27009 30.615 8.93511 29.4815 8.43263 28.9869L3.24043 23.8759C0.64433 21.3204 0.853692 19.1359 1.20961 18.0641C1.56553 16.9925 2.69609 15.0965 6.29713 14.4988L12.9758 13.4065C13.6039 13.3035 14.5042 12.644 14.7763 12.0876L18.4821 4.81264C20.1569 1.49461 22.3552 1 23.5067 1C24.6582 1 26.8565 1.49461 28.5314 4.81264L32.2162 12.067C32.5093 12.6234 33.4096 13.2829 34.0377 13.3859L40.7164 14.4782C44.3384 15.0759 45.4689 16.9719 45.8039 18.0435C46.1389 19.1153 46.3482 21.2998 43.7731 23.8553L38.5809 28.9869C38.0784 29.4815 37.7644 30.5944 37.9109 31.2745L39.3974 37.6014C40.3605 41.7232 38.874 43.5162 37.9109 44.2169C37.3875 44.5878 36.55 45 35.3567 45ZM23.5067 36.5916C24.5326 36.5916 25.5585 36.8389 26.375 37.3129L32.635 40.9607C34.4564 42.0323 35.6079 42.0323 36.0476 41.7232C36.4872 41.4141 36.8013 40.3218 36.3407 38.3021L34.8542 31.9752C34.4564 30.2647 35.1054 28.0595 36.3616 26.8024L41.5538 21.6914C42.5797 20.6815 43.0403 19.6923 42.8309 19.0122C42.6006 18.3321 41.6376 17.7756 40.2139 17.5489L33.5352 16.4567C31.9231 16.1887 30.1645 14.911 29.4317 13.4684L25.7469 6.21404C25.077 4.89508 24.2395 4.11194 23.5067 4.11194C22.774 4.11194 21.9365 4.89508 21.2875 6.21404L17.5818 13.4684C16.849 14.911 15.0904 16.1887 13.4783 16.4567L6.82054 17.5489C5.39687 17.7756 4.4338 18.3321 4.2035 19.0122C3.9732 19.6923 4.45474 20.7021 5.48062 21.6914L10.6728 26.8024C11.929 28.0389 12.578 30.2647 12.1802 31.9752L10.6938 38.3021C10.2122 40.3424 10.5472 41.4141 10.9869 41.7232C11.4265 42.0323 12.5571 42.0117 14.3995 40.9607L20.6594 37.3129C21.455 36.8389 22.4809 36.5916 23.5067 36.5916Z" fill="#FF9900" stroke="#FF9900"/>
</svg>
