<svg width="22" height="25" viewBox="0 0 22 25" fill="none" xmlns="http://www.w3.org/2000/svg">
<path d="M9.2136 0C7.52444 0 6.1424 1.38204 6.1424 3.0712H3.0712C1.38204 3.0712 0 4.45324 0 6.1424H21.4984C21.4984 4.45324 20.1164 3.0712 18.4272 3.0712H15.356C15.356 1.38204 13.974 0 12.2848 0H9.2136ZM3.0712 9.2136V23.9861C3.0712 24.3239 3.3169 24.5696 3.65473 24.5696H17.8744C18.2122 24.5696 18.4579 24.3239 18.4579 23.9861V9.2136H15.3867V19.9628C15.3867 20.8227 14.7111 21.4984 13.8511 21.4984C12.9912 21.4984 12.3155 20.8227 12.3155 19.9628V9.2136H9.24432V19.9628C9.24432 20.8227 8.56865 21.4984 7.70872 21.4984C6.84878 21.4984 6.17311 20.8227 6.17311 19.9628V9.2136H3.10191H3.0712Z" fill="#E2442E"/>
</svg>
