<svg width="23" height="31" viewBox="0 0 23 31" fill="none" xmlns="http://www.w3.org/2000/svg">
<path d="M11.5 0L10.1967 1.28224C9.775 1.69708 0 11.427 0 19.6861C0 25.9088 5.175 31 11.5 31C17.825 31 23 25.9088 23 19.6861C23 11.4647 13.225 1.69708 12.8033 1.28224L11.5 0ZM5.75 17.8005C6.82333 17.8005 7.66667 18.6302 7.66667 19.6861C7.66667 21.7603 9.39167 23.4574 11.5 23.4574C12.5733 23.4574 13.4167 24.2871 13.4167 25.3431C13.4167 26.399 12.5733 27.2287 11.5 27.2287C7.28333 27.2287 3.83333 23.8345 3.83333 19.6861C3.83333 18.6302 4.67667 17.8005 5.75 17.8005Z" fill="black"/>
</svg>
