<svg width="35" height="38" viewBox="0 0 35 38" fill="none" xmlns="http://www.w3.org/2000/svg">
<path d="M27.4141 12.8434C27.4141 9.96751 26.3432 7.20947 24.4366 5.17595C22.5302 3.14242 19.9446 2 17.2485 2C14.5524 2 11.9667 3.14242 10.0603 5.17595C8.15384 7.20947 7.08282 9.96751 7.08282 12.8434C7.08282 25.494 2 29.1084 2 29.1084H32.4969C32.4969 29.1084 27.4141 25.494 27.4141 12.8434Z" stroke="#3F3F3F" stroke-width="4" stroke-linecap="round" stroke-linejoin="round"/>
<path d="M20.1796 34.1907C19.8817 34.7042 19.4543 35.1305 18.9397 35.4266C18.4253 35.723 17.8421 35.879 17.2485 35.879C16.6548 35.879 16.0716 35.723 15.5573 35.4266C15.0429 35.1305 14.6152 34.7042 14.3174 34.1907" stroke="#3F3F3F" stroke-width="4" stroke-linecap="round" stroke-linejoin="round"/>
</svg>
