<svg width="39" height="39" viewBox="0 0 39 39" fill="none" xmlns="http://www.w3.org/2000/svg">
<path d="M0 0H39V39H0V0Z" fill="none"/>
<path d="M13.8096 6.24475C14.3999 6.24475 14.9438 6.56489 15.2304 7.08102L17.2181 10.6616C17.4783 11.1304 17.4906 11.6974 17.2507 12.177L15.3358 16.0069C15.3358 16.0069 15.8908 18.8599 18.2132 21.1824C20.5357 23.5048 23.3792 24.0502 23.3792 24.0502L27.2084 22.1356C27.6883 21.8956 28.2558 21.908 28.7248 22.1688L32.3155 24.1651C32.8312 24.4518 33.1509 24.9954 33.1509 25.5853V29.7075C33.1509 31.8068 31.201 33.323 29.212 32.6518C25.1267 31.2734 18.7854 28.6488 14.7661 24.6295C10.7468 20.6102 8.12224 14.2689 6.7438 10.1837C6.07266 8.19465 7.58886 6.24475 9.68806 6.24475H13.8096Z" 
fill="#989898" stroke="none" stroke-width="2" stroke-linejoin="round"/>
</svg>
