<svg width="17" height="17" viewBox="0 0 17 17" fill="none" xmlns="http://www.w3.org/2000/svg">
<path d="M12.5293 16C12.157 16 11.6792 15.8806 11.082 15.5293L8.98132 14.2857C8.76352 14.1593 8.34198 14.1593 8.13121 14.2857L6.02349 15.5293C4.77994 16.267 4.04926 15.9719 3.71905 15.733C3.39586 15.4941 2.89001 14.8829 3.22022 13.4778L3.71905 11.3208C3.77525 11.096 3.66284 10.7096 3.49422 10.541L1.75184 8.7986C0.880645 7.92741 0.950902 7.18268 1.07034 6.81732C1.18978 6.45198 1.56917 5.80561 2.7776 5.60187L5.01881 5.2295C5.22958 5.19437 5.53169 4.96955 5.62303 4.77985L6.86658 2.29976C7.42863 1.16862 8.16634 1 8.55275 1C8.93917 1 9.67687 1.16862 10.2389 2.29976L11.4755 4.77283C11.5738 4.96252 11.8759 5.18735 12.0867 5.22248L14.3279 5.59484C15.5434 5.79859 15.9228 6.44496 16.0352 6.8103C16.1476 7.17566 16.2178 7.92039 15.3537 8.79158L13.6113 10.541C13.4427 10.7096 13.3373 11.089 13.3865 11.3208L13.8853 13.4778C14.2085 14.8829 13.7097 15.4941 13.3865 15.733C13.2108 15.8595 12.9298 16 12.5293 16ZM8.55275 13.1335C8.89701 13.1335 9.24127 13.2178 9.51528 13.3794L11.616 14.623C12.2272 14.9883 12.6136 14.9883 12.7612 14.8829C12.9087 14.7775 13.0141 14.4052 12.8595 13.7166L12.3607 11.5597C12.2272 10.9766 12.445 10.2248 12.8666 9.79626L14.6089 8.05388C14.9532 7.70961 15.1078 7.37238 15.0375 7.14053C14.9602 6.90866 14.6371 6.71896 14.1593 6.64168L11.9181 6.26931C11.3771 6.17798 10.7869 5.74238 10.541 5.25058L9.30451 2.77752C9.07968 2.32787 8.79865 2.06089 8.55275 2.06089C8.30685 2.06089 8.02582 2.32787 7.80802 2.77752L6.56448 5.25058C6.31858 5.74238 5.72841 6.17798 5.18743 6.26931L2.95324 6.64168C2.47549 6.71896 2.15231 6.90866 2.07502 7.14053C1.99774 7.37238 2.15933 7.71664 2.50359 8.05388L4.24598 9.79626C4.66752 10.2178 4.88532 10.9766 4.75183 11.5597L4.25301 13.7166C4.09141 14.4122 4.20383 14.7775 4.35137 14.8829C4.49891 14.9883 4.8783 14.9813 5.49656 14.623L7.59725 13.3794C7.86423 13.2178 8.20849 13.1335 8.55275 13.1335Z" fill="#FF9900" stroke="#FF9900"/>
</svg>
