<svg width="18" height="18" viewBox="0 0 18 18" fill="none" xmlns="http://www.w3.org/2000/svg">
<path d="M7.80435 0.0222981C3.50081 0.0222981 0 3.5231 0 7.82664C0 12.1302 3.50081 15.631 7.80435 15.631C9.11994 15.631 10.4132 15.3188 11.5058 14.7168C11.5934 14.8221 11.6904 14.9191 11.7957 15.0066L14.0255 17.2365C14.2314 17.4681 14.4825 17.6553 14.7633 17.7864C15.0442 17.9175 15.3489 17.9899 15.6587 17.999C15.9685 18.0081 16.2769 17.9538 16.565 17.8395C16.853 17.7251 17.1147 17.553 17.3338 17.3338C17.553 17.1147 17.7251 16.853 17.8395 16.565C17.9538 16.2769 18.0081 15.9685 17.999 15.6587C17.9899 15.3489 17.9175 15.0442 17.7864 14.7633C17.6553 14.4825 17.4681 14.2314 17.2365 14.0255L15.0066 11.7957C14.898 11.6871 14.7785 11.5899 14.6499 11.5058C15.2519 10.4132 15.631 9.14223 15.631 7.80435C15.631 3.50081 12.1302 0 7.82664 0L7.80435 0.0222981ZM7.80435 2.25211C10.9038 2.25211 13.3789 4.7272 13.3789 7.82664C13.3789 9.29832 12.8437 10.6585 11.9072 11.6619C11.8849 11.6842 11.8626 11.7065 11.8403 11.7288C11.735 11.8163 11.638 11.9134 11.5504 12.0187C10.5693 12.9106 9.23143 13.4235 7.78205 13.4235C4.68261 13.4235 2.20752 10.9484 2.20752 7.84894C2.20752 4.7495 4.68261 2.27441 7.78205 2.27441L7.80435 2.25211Z" fill="#9E9E9E"/>
</svg>
